<svg width="16" height="16" viewBox="0 0 16 16" fill="none" xmlns="http://www.w3.org/2000/svg">
<circle cx="8" cy="8" r="8" fill="#235387"/>
<path d="M8.40039 9.78516H6.90625C6.90234 9.57031 6.90039 9.43945 6.90039 9.39258C6.90039 8.9082 6.98047 8.50977 7.14062 8.19727C7.30078 7.88477 7.62109 7.5332 8.10156 7.14258C8.58203 6.75195 8.86914 6.49609 8.96289 6.375C9.10742 6.18359 9.17969 5.97266 9.17969 5.74219C9.17969 5.42188 9.05078 5.14844 8.79297 4.92188C8.53906 4.69141 8.19531 4.57617 7.76172 4.57617C7.34375 4.57617 6.99414 4.69531 6.71289 4.93359C6.43164 5.17188 6.23828 5.53516 6.13281 6.02344L4.62109 5.83594C4.66406 5.13672 4.96094 4.54297 5.51172 4.05469C6.06641 3.56641 6.79297 3.32227 7.69141 3.32227C8.63672 3.32227 9.38867 3.57031 9.94727 4.06641C10.5059 4.55859 10.7852 5.13281 10.7852 5.78906C10.7852 6.15234 10.6816 6.49609 10.4746 6.82031C10.2715 7.14453 9.83398 7.58594 9.16211 8.14453C8.81445 8.43359 8.59766 8.66602 8.51172 8.8418C8.42969 9.01758 8.39258 9.33203 8.40039 9.78516ZM6.90625 12V10.3535H8.55273V12H6.90625Z" fill="#D4F1FC"/>
</svg>
